<?xml version="1.0" encoding="utf-8"?>
<!-- Generator: Adobe Illustrator 23.0.4, SVG Export Plug-In . SVG Version: 6.00 Build 0)  -->
<svg version="1.1" id="vertical-logo" xmlns="http://www.w3.org/2000/svg" xmlns:xlink="http://www.w3.org/1999/xlink" x="0px"
	 y="0px" width="140px" height="59px" viewBox="0 0 140 59" style="enable-background:new 0 0 140 59;" xml:space="preserve">
<style type="text/css">
	.st0{fill:#FFFFFF;}
	.st1{fill:#08A6DF;}
	.st2{fill:#7C2A8A;}
	.st3{fill:#EC1848;}
</style>
<g>
	<path class="st0" d="M6.8,57c0,0.4-0.1,0.7-0.2,0.9c-0.1,0.2-0.3,0.4-0.4,0.5s-0.4,0.2-0.5,0.3c-0.2,0-0.3,0.1-0.5,0.1
		c-0.1,0-0.3,0-0.5-0.1c-0.2,0-0.4-0.1-0.5-0.3C4,58.4,3.8,58.2,3.7,58c-0.1-0.2-0.2-0.5-0.2-0.9V44.7H1.5c-0.3,0-0.6-0.1-0.8-0.2
		c-0.2-0.1-0.3-0.2-0.5-0.4s-0.2-0.3-0.2-0.4C0,43.6,0,43.5,0,43.3c0-0.1,0-0.2,0.1-0.4c0-0.2,0.1-0.3,0.2-0.4
		c0.1-0.1,0.3-0.3,0.5-0.4C0.9,42.1,1.2,42,1.5,42h2.1v-3.5c0-1,0.1-1.9,0.3-2.7C4.1,35,4.5,34.3,5,33.7c0.5-0.6,1.1-1.1,1.9-1.4
		c0.8-0.3,1.7-0.5,2.7-0.5c0.9,0,1.5,0.1,1.8,0.4c0.3,0.3,0.5,0.6,0.5,1.1c0,0.3-0.1,0.6-0.3,0.9c-0.2,0.3-0.6,0.4-1.2,0.4H9.8
		c-0.6,0-1.1,0.1-1.5,0.3c-0.4,0.2-0.7,0.5-0.9,0.8C7.2,36,7,36.5,7,37c-0.1,0.5-0.1,1-0.1,1.6V42h2.7c0.3,0,0.6,0.1,0.8,0.2
		c0.2,0.1,0.3,0.2,0.5,0.4c0.1,0.1,0.2,0.3,0.2,0.4c0,0.2,0.1,0.3,0.1,0.4c0,0.1,0,0.3-0.1,0.4c0,0.2-0.1,0.3-0.2,0.4
		c-0.1,0.1-0.3,0.3-0.5,0.4c-0.2,0.1-0.5,0.2-0.8,0.2H6.8V57z"/>
	<path class="st0" d="M30.4,50.2c0,1.3-0.2,2.5-0.7,3.5c-0.5,1.1-1.1,2-1.9,2.8c-0.8,0.8-1.8,1.4-2.8,1.8c-1.1,0.4-2.3,0.6-3.5,0.6
		c-1.3,0-2.4-0.2-3.5-0.6c-1.1-0.4-2-1-2.8-1.8c-0.8-0.8-1.4-1.7-1.9-2.8c-0.5-1.1-0.7-2.2-0.7-3.5c0-1.3,0.2-2.4,0.7-3.5
		c0.5-1.1,1.1-2,1.9-2.7c0.8-0.8,1.7-1.4,2.8-1.8c1.1-0.4,2.3-0.6,3.5-0.6c1.3,0,2.4,0.2,3.5,0.6c1.1,0.4,2,1,2.8,1.8
		c0.8,0.8,1.4,1.7,1.9,2.7C30.2,47.8,30.4,49,30.4,50.2z M27,50.2c0-0.8-0.1-1.5-0.4-2.3c-0.2-0.7-0.6-1.4-1.1-1.9
		c-0.5-0.5-1-1-1.7-1.3c-0.7-0.3-1.5-0.5-2.4-0.5c-0.9,0-1.7,0.2-2.4,0.5c-0.7,0.3-1.3,0.8-1.7,1.3c-0.5,0.5-0.8,1.2-1.1,1.9
		c-0.2,0.7-0.4,1.5-0.4,2.3c0,0.8,0.1,1.5,0.4,2.3c0.2,0.7,0.6,1.4,1.1,1.9c0.5,0.6,1,1,1.7,1.3c0.7,0.3,1.5,0.5,2.4,0.5
		c0.9,0,1.7-0.2,2.4-0.5c0.7-0.3,1.3-0.8,1.7-1.3c0.5-0.6,0.8-1.2,1.1-1.9C26.9,51.8,27,51,27,50.2z"/>
	<path class="st0" d="M38.1,44.8h0.1c0.4-0.9,1-1.7,1.9-2.3c0.9-0.6,1.8-0.9,2.9-0.9c0.5,0,1,0.1,1.3,0.3c0.4,0.2,0.6,0.6,0.6,1.1
		c0,0.6-0.2,1-0.6,1.2c-0.4,0.2-0.8,0.3-1.4,0.3h-0.2c-1.3,0-2.4,0.5-3.2,1.4c-0.8,0.9-1.3,2.3-1.3,4.1V57c0,0.4-0.1,0.7-0.2,0.9
		c-0.1,0.2-0.3,0.4-0.4,0.5c-0.2,0.1-0.4,0.2-0.5,0.3c-0.2,0-0.3,0.1-0.5,0.1c-0.1,0-0.3,0-0.5-0.1c-0.2,0-0.4-0.1-0.5-0.3
		s-0.3-0.3-0.4-0.5C35,57.7,35,57.4,35,57V43.5c0-0.4,0.1-0.7,0.2-0.9c0.1-0.2,0.3-0.4,0.4-0.5c0.2-0.1,0.3-0.2,0.5-0.2
		c0.2,0,0.3-0.1,0.5-0.1c0.1,0,0.3,0,0.4,0.1c0.2,0,0.3,0.1,0.5,0.2c0.2,0.1,0.3,0.3,0.4,0.5c0.1,0.2,0.2,0.5,0.2,0.9V44.8z"/>
	<path class="st0" d="M49.2,51.3c0,0.7,0.2,1.4,0.5,2c0.3,0.6,0.7,1.2,1.2,1.6c0.5,0.5,1.1,0.8,1.7,1.1c0.6,0.3,1.3,0.4,2,0.4
		c1,0,1.8-0.2,2.5-0.5c0.7-0.4,1.2-0.8,1.8-1.2c0.2-0.2,0.4-0.3,0.6-0.4C59.7,54,59.8,54,60,54c0.4,0,0.7,0.1,1,0.4
		c0.3,0.2,0.4,0.6,0.4,1c0,0.1,0,0.3-0.1,0.5c-0.1,0.2-0.2,0.4-0.4,0.7c-1.6,1.7-3.7,2.5-6.3,2.5c-1.3,0-2.4-0.2-3.5-0.6
		c-1.1-0.4-2-1-2.8-1.8c-0.8-0.8-1.4-1.7-1.8-2.7c-0.4-1.1-0.7-2.3-0.7-3.6c0-1.3,0.2-2.5,0.6-3.5c0.4-1.1,1-2,1.8-2.8
		c0.8-0.8,1.7-1.4,2.7-1.8c1-0.4,2.2-0.6,3.4-0.6c2.1,0,3.8,0.6,5.2,1.8c1.4,1.2,2.3,2.9,2.6,5.2c0,0.3,0.1,0.5,0.1,0.6s0,0.3,0,0.5
		c0,1.1-0.6,1.7-1.7,1.7H49.2z M59.1,48.8c0-0.7-0.1-1.3-0.3-1.8c-0.2-0.6-0.5-1.1-0.9-1.5c-0.4-0.4-0.9-0.7-1.4-1
		c-0.6-0.2-1.2-0.4-2-0.4c-0.7,0-1.4,0.1-2,0.4c-0.6,0.2-1.2,0.6-1.6,1c-0.5,0.4-0.8,0.9-1.1,1.5c-0.3,0.6-0.5,1.2-0.5,1.8H59.1z"/>
	<path class="st0" d="M77.9,55.1c0.4-0.3,0.8-0.5,1.2-0.5c0.4,0,0.7,0.1,1,0.4c0.2,0.3,0.4,0.6,0.4,0.9c0,0.2,0,0.5-0.1,0.7
		c-0.1,0.2-0.3,0.5-0.6,0.7c-0.7,0.5-1.4,0.9-2.3,1.2c-0.9,0.3-1.8,0.4-2.7,0.4c-1.3,0-2.5-0.2-3.5-0.6c-1.1-0.4-2-1-2.8-1.8
		c-0.8-0.8-1.4-1.7-1.8-2.7c-0.4-1.1-0.7-2.3-0.7-3.6c0-1.3,0.2-2.5,0.7-3.6c0.4-1.1,1.1-2,1.8-2.8c0.8-0.8,1.7-1.4,2.8-1.8
		c1.1-0.4,2.2-0.6,3.5-0.6c0.9,0,1.7,0.1,2.6,0.4c0.8,0.2,1.6,0.6,2.2,1.2c0.3,0.3,0.5,0.5,0.7,0.7c0.1,0.2,0.2,0.5,0.2,0.7
		c0,0.4-0.1,0.8-0.4,1c-0.3,0.3-0.6,0.4-1,0.4c-0.2,0-0.4,0-0.5-0.1c-0.2-0.1-0.4-0.2-0.7-0.5c-0.3-0.3-0.7-0.5-1.2-0.7
		c-0.5-0.2-1-0.3-1.7-0.3c-0.9,0-1.6,0.2-2.3,0.5c-0.7,0.3-1.2,0.8-1.7,1.3c-0.5,0.5-0.8,1.2-1.1,1.9c-0.2,0.7-0.4,1.5-0.4,2.3
		s0.1,1.5,0.3,2.2c0.2,0.7,0.6,1.3,1,1.9c0.5,0.5,1,1,1.7,1.3c0.7,0.3,1.4,0.5,2.3,0.5c0.7,0,1.3-0.1,1.8-0.3
		C77,55.7,77.5,55.5,77.9,55.1z"/>
	<path class="st0" d="M94.6,56.2h-0.1c-0.6,0.9-1.4,1.6-2.3,2.1c-0.9,0.5-2,0.7-3.3,0.7c-0.7,0-1.3-0.1-2-0.3
		c-0.7-0.2-1.4-0.5-1.9-0.9c-0.6-0.4-1.1-0.9-1.4-1.6c-0.4-0.7-0.6-1.5-0.6-2.4c0-1.3,0.3-2.2,1-3c0.7-0.7,1.6-1.3,2.7-1.7
		c1.1-0.4,2.3-0.6,3.7-0.7c1.4-0.1,2.8-0.2,4.2-0.2v-0.5c0-1.2-0.4-2.1-1.1-2.7c-0.7-0.6-1.7-0.9-3-0.9c-0.7,0-1.4,0.1-2,0.3
		c-0.6,0.2-1.3,0.5-1.9,1c-0.3,0.2-0.7,0.3-1,0.3c-0.3,0-0.6-0.1-0.9-0.4c-0.2-0.2-0.4-0.6-0.4-0.9c0-0.2,0.1-0.5,0.2-0.7
		c0.1-0.2,0.3-0.4,0.6-0.6c0.7-0.5,1.6-1,2.5-1.3c1-0.3,2-0.5,3.2-0.5c1.2,0,2.2,0.2,3.1,0.5c0.9,0.3,1.6,0.8,2.2,1.4
		c0.6,0.6,1,1.3,1.3,2.1c0.3,0.8,0.4,1.6,0.4,2.5v9.1c0,0.3-0.1,0.6-0.2,0.9c-0.1,0.2-0.2,0.4-0.4,0.5c-0.2,0.1-0.3,0.2-0.5,0.2
		c-0.2,0-0.3,0.1-0.4,0.1c-0.1,0-0.3,0-0.4-0.1c-0.2,0-0.3-0.1-0.5-0.2c-0.2-0.1-0.3-0.3-0.4-0.5c-0.1-0.2-0.2-0.5-0.2-0.9V56.2z
		 M93.7,50.7c-0.8,0-1.7,0-2.5,0.1c-0.9,0.1-1.7,0.2-2.4,0.4c-0.7,0.2-1.3,0.5-1.8,0.9c-0.5,0.4-0.7,1-0.7,1.7
		c0,0.5,0.1,0.9,0.3,1.2c0.2,0.3,0.5,0.6,0.8,0.8c0.3,0.2,0.7,0.4,1.1,0.4c0.4,0.1,0.8,0.1,1.2,0.1c1.5,0,2.7-0.5,3.5-1.4
		c0.8-0.9,1.2-2.1,1.2-3.5v-0.9H93.7z"/>
	<path class="st0" d="M111.4,45.4c-0.5-0.5-1-0.8-1.5-1c-0.5-0.2-1.1-0.3-1.6-0.3c-0.4,0-0.7,0-1.1,0.1c-0.4,0.1-0.7,0.2-1,0.4
		c-0.3,0.2-0.5,0.4-0.7,0.7c-0.2,0.3-0.3,0.6-0.3,1c0,0.7,0.3,1.2,0.9,1.6c0.6,0.3,1.6,0.6,2.8,0.9c0.8,0.2,1.5,0.4,2.2,0.7
		c0.7,0.3,1.3,0.6,1.8,1c0.5,0.4,0.9,0.8,1.2,1.4c0.3,0.5,0.4,1.2,0.4,1.9c0,1-0.2,1.8-0.6,2.5c-0.4,0.7-0.9,1.2-1.5,1.7
		c-0.6,0.4-1.3,0.7-2.1,0.9c-0.8,0.2-1.6,0.3-2.4,0.3c-1,0-2-0.2-2.9-0.5c-1-0.3-1.8-0.8-2.5-1.4c-0.3-0.3-0.5-0.5-0.6-0.7
		c-0.1-0.2-0.1-0.4-0.1-0.6c0-0.4,0.1-0.8,0.4-1c0.3-0.3,0.6-0.4,1-0.4c0.4,0,0.8,0.2,1.2,0.5c0.5,0.5,1.1,0.8,1.7,1.1
		c0.6,0.3,1.2,0.4,1.9,0.4c0.4,0,0.8,0,1.2-0.1c0.4-0.1,0.7-0.2,1-0.4c0.3-0.2,0.6-0.4,0.8-0.7c0.2-0.3,0.3-0.7,0.3-1.2
		c0-0.8-0.4-1.3-1.1-1.7c-0.7-0.4-1.8-0.7-3.2-1c-0.6-0.1-1.1-0.3-1.7-0.5c-0.6-0.2-1.1-0.5-1.6-0.8s-0.8-0.8-1.1-1.3
		c-0.3-0.5-0.4-1.2-0.4-2c0-0.9,0.2-1.6,0.5-2.3c0.4-0.6,0.8-1.2,1.4-1.6c0.6-0.4,1.2-0.7,2-0.9c0.7-0.2,1.5-0.3,2.3-0.3
		c0.9,0,1.7,0.1,2.6,0.4c0.8,0.3,1.6,0.7,2.2,1.2c0.3,0.3,0.5,0.5,0.6,0.7c0.1,0.2,0.1,0.4,0.1,0.6c0,0.4-0.1,0.7-0.4,1
		c-0.3,0.3-0.6,0.4-1,0.4C112.1,45.9,111.7,45.7,111.4,45.4z"/>
	<path class="st0" d="M126,58.4c-0.6,0.3-1.3,0.4-2.1,0.4c-1.6,0-2.8-0.4-3.6-1.3c-0.8-0.9-1.2-2.2-1.2-3.9v-9h-1.9
		c-0.3,0-0.6,0-0.8-0.1c-0.2-0.1-0.4-0.2-0.5-0.3c-0.1-0.1-0.2-0.3-0.2-0.4c0-0.2-0.1-0.3-0.1-0.4c0-0.1,0-0.2,0.1-0.4
		c0-0.2,0.1-0.3,0.2-0.4c0.1-0.1,0.3-0.3,0.5-0.4c0.2-0.1,0.5-0.2,0.8-0.2h1.9v-3.2c0-0.4,0.1-0.7,0.2-0.9c0.1-0.2,0.3-0.4,0.4-0.6
		c0.2-0.1,0.4-0.2,0.5-0.3c0.2,0,0.3-0.1,0.5-0.1c0.1,0,0.3,0,0.5,0.1c0.2,0,0.3,0.1,0.5,0.3c0.2,0.1,0.3,0.3,0.4,0.6
		c0.1,0.2,0.2,0.6,0.2,0.9V42h3.2c0.3,0,0.6,0.1,0.8,0.2c0.2,0.1,0.3,0.2,0.5,0.4c0.1,0.1,0.2,0.3,0.2,0.4c0,0.2,0.1,0.3,0.1,0.4
		c0,0.1,0,0.3-0.1,0.4c0,0.2-0.1,0.3-0.2,0.4c-0.1,0.1-0.3,0.3-0.5,0.3c-0.2,0.1-0.5,0.1-0.8,0.1h-3.2v8.6c0,1,0.2,1.7,0.5,2.1
		c0.4,0.4,0.8,0.6,1.4,0.6c0.2,0,0.5,0,0.7-0.1c0.2-0.1,0.4-0.1,0.6-0.1c0.4,0,0.7,0.1,0.9,0.4c0.2,0.3,0.3,0.6,0.3,0.9
		c0,0.3-0.1,0.5-0.2,0.7C126.5,58.1,126.3,58.3,126,58.4z"/>
	<path class="st0" d="M133.2,44.8h0.1c0.4-0.9,1-1.7,1.9-2.3c0.9-0.6,1.8-0.9,2.9-0.9c0.5,0,1,0.1,1.3,0.3c0.4,0.2,0.6,0.6,0.6,1.1
		c0,0.6-0.2,1-0.6,1.2c-0.4,0.2-0.8,0.3-1.4,0.3h-0.2c-1.3,0-2.4,0.5-3.2,1.4c-0.8,0.9-1.3,2.3-1.3,4.1V57c0,0.4-0.1,0.7-0.2,0.9
		c-0.1,0.2-0.3,0.4-0.4,0.5s-0.4,0.2-0.5,0.3c-0.2,0-0.3,0.1-0.5,0.1c-0.1,0-0.3,0-0.5-0.1c-0.2,0-0.4-0.1-0.5-0.3
		c-0.2-0.1-0.3-0.3-0.4-0.5c-0.1-0.2-0.2-0.5-0.2-0.9V43.5c0-0.4,0.1-0.7,0.2-0.9c0.1-0.2,0.3-0.4,0.4-0.5c0.2-0.1,0.3-0.2,0.5-0.2
		c0.2,0,0.3-0.1,0.5-0.1c0.1,0,0.3,0,0.4,0.1c0.2,0,0.3,0.1,0.5,0.2c0.2,0.1,0.3,0.3,0.4,0.5c0.1,0.2,0.2,0.5,0.2,0.9V44.8z"/>
</g>
<g>
	<g>
		<path class="st1" d="M70,32.9c-9.1,0-16.5-7.4-16.5-16.5c0-4.8,2.1-9.3,5.7-12.4c0.5-0.4,1.2-0.4,1.6,0.1c0.4,0.5,0.4,1.2-0.1,1.6
			c-3.1,2.7-4.9,6.6-4.9,10.7c0,7.8,6.4,14.2,14.2,14.2s14.2-6.4,14.2-14.2S77.8,2.3,70,2.3c-1.9,0-3.7,0.4-5.4,1.1
			c-0.6,0.2-1.3,0-1.5-0.6c-0.2-0.6,0-1.3,0.6-1.5C65.7,0.4,67.8,0,70,0c9.1,0,16.5,7.4,16.5,16.5S79.1,32.9,70,32.9z"/>
	</g>
	<g>
		<path class="st2" d="M70,28.4c-6.6,0-11.9-5.4-11.9-11.9c0-6.6,5.4-11.9,11.9-11.9c5,0,9.5,3.2,11.2,7.9c0.5,1.3,0.7,2.6,0.7,4
			c0,0.6-0.5,1.1-1.1,1.1c-0.6,0-1.1-0.5-1.1-1.1c0-1.1-0.2-2.2-0.6-3.3c-1.4-3.8-5-6.4-9.1-6.4c-5.3,0-9.6,4.3-9.6,9.6
			s4.3,9.6,9.6,9.6c0.6,0,1.1,0.5,1.1,1.1C71.1,27.9,70.6,28.4,70,28.4z"/>
	</g>
	<g>
		<path class="st3" d="M70,23.9c-4.1,0-7.4-3.3-7.4-7.4c0-4.1,3.3-7.4,7.4-7.4c0.6,0,1.1,0.5,1.1,1.1c0,0.6-0.5,1.1-1.1,1.1
			c-2.8,0-5.1,2.3-5.1,5.1s2.3,5.1,5.1,5.1s5.1-2.3,5.1-5.1c0-0.6,0.5-1.1,1.1-1.1c0.6,0,1.1,0.5,1.1,1.1
			C77.4,20.6,74.1,23.9,70,23.9z"/>
	</g>
</g>
</svg>
